<svg xmlns="http://www.w3.org/2000/svg" width="726" height="490" viewBox="0 0 726 490" fill="none">
<path d="M275.737 282.025L271.778 278.968L265.835 269.729L263.037 269.69L259.331 268.128L257.143 268.484L256.129 271.972L254.248 272.528L249.46 269.832L240.878 263.141L240.182 260.25L238.475 257.966L234.894 257.513L233.257 256.869L230.172 252.574L226.221 249.979L221.195 250.025L217.896 248.73L212.188 252.459L193.647 256.146L186.844 260.064L174.231 263.53L167.631 268.044L167.207 269.971L163.896 275.285L162.618 277.972L160.71 278.866L156.826 278.905L154.266 279.688L148.328 280.436L145.676 281.528L125.904 283.711L124.18 284.93L120.27 291.477L118.583 293.124L118.58 293.134L110.433 294.595L107.044 289.411L103.788 288.112L101.718 286.419L101.226 283.915L94.6314 281.005L90.6301 280.976L87.071 282.425L84.3764 283.806L81.0622 282.891L53.3465 279.297L30.667 280.534L29.8498 280.79L28.0315 278.837L28.7929 277.021L29.2049 275.832L28.511 273.847L26.7821 272.025L25.3369 271.2L24.5383 270.484L22.4228 271.368L18.6713 271.407L17.9842 269.965L17.4135 268.034L16.8851 266.777L13.7279 262.704L8.88235 262.753L6.90868 259.664L4.83878 255.776L4.84723 254.802L5.44659 252.951L0.471045 246.493L0 244.006L0.687156 241.762L4.78813 237.402L5.86191 237.055L7.74442 233.411L7.82039 231.265L9.22677 228.923L9.09002 225.842L10.7058 223.707L12.5832 217.978L15.4652 216.647L16.2351 211.732L22.1764 205.447L24.2159 199.098L23.6706 193.38L21.8725 190.139L20.3142 183.269L21.3187 180.849L24.3746 176.691L25.0702 174.685L27.7969 172.688L30.2788 168.138L32.8146 164.555L34.5013 162.802L41.9452 153.358L43.1574 151.461L53.3366 139.209L63.5053 129.326L75.4975 122.278L77.7213 111.57L73.4386 103.294L73.8607 100.959L74.2389 93.7198L72.8156 90.0602L71.2117 85.63L69.2093 81.8217L65.6115 76.7987L62.4712 70.7334L62.3344 65.6643L60.9196 60.209L58.9206 51.3862L60.1244 48.7619L64.0413 47.7265L72.7076 51.8475L74.3183 51.5809L86.0438 41.2957L87.0011 37.0073L90.815 32.2764L100.845 31.4768L104.151 32.1226L115.47 30.2689L119.091 28.3383L122.743 27.6788L129.539 29.5428L146.296 29.0792L154.886 30.7313L157.685 30.6425L162.71 33.8118L172.075 34.2133L182.467 37.4509L192.744 41.319L196.802 39.8736L203.098 41.0217L207.113 47.3159L215.161 49.1149L223.201 51.0046L229.421 49.8179L244.682 47.2603L248.746 52.3363L254.803 52.5191L260.903 54.5932L269.735 54.0482L272.191 53.0932L274.678 53.0675L276.507 51.8152L277.461 49.7445L281.499 49.0252L282.972 50.4484L283.817 52.8232L285.793 57.6686L285.683 60.1015L287.177 61.5828L287.974 64.2669L289.397 65.972L291.805 64.2788L292.733 63.9798L299.399 60.491L303.13 57.6514L304.013 57.7779L306.237 61.1522L309.892 61.7741L312.627 59.541L316.221 58.6492L322.782 58.2204L326.576 61.4836L329.694 63.5919L329.569 67.5984L329.87 68.2887L331.102 69.8964L334.633 71.3418L335.531 72.7137L338.534 74.4513L338.98 74.3453L340.161 69.9997L340.405 60.3465L339.473 55.7814L337.549 50.4235L338.952 48.228L340.002 45.0024L340.277 43.9602L342.878 36.1949L344.778 34.4318L349.149 28.3785L351.365 27.1586L354.051 21.5683L353.813 20.4493L360.964 19.0978L366.31 21.8349L369.349 17.9138L376.215 16.5709L383.269 17.9565L391.679 17.7583L398.054 21.0711L401.221 21.6708L408.559 17.5721L409.73 15.0213L410.983 9.43101L411.049 5.32715L413.256 2.69605L416.734 4.00306L418.662 3.39994L426.597 7.6627L431.382 6.981L438.871 4.23884L445.027 0L452.813 0.801298L453.795 1.52904L457.015 0.635483L465.371 0.765331L469.038 0.483424L472.252 4.33613L474.7 6.48886L476.24 9.48219L478.827 11.2608L480.922 15.8738L480.226 17.3653L480.692 22.3132L481.178 23.4613L486.914 30.7498L489.811 32.6787L493.483 36.3811L494.57 39.0088L494.628 41.7185L492.322 43.7465L489.956 43.7072L484.108 51.7133L486.097 54.1873L486.959 58.356L486.791 61.9508L490.035 65.7881L490.38 67.987L492.921 73.0442L494.42 73.2851L497.297 74.3341L501.236 74.3529L503.019 75.1286L505.134 78.8326L508.082 79.0223L516.06 75.8085L520.625 75.935L522.227 77.8263L523.953 85.9042H524.017L526.548 87.1685L529.433 90.1601L531.491 94.264L531.999 95.1165L533.448 100.408L535.896 104.999L536.242 106.803L536.174 109.808L534.005 112.446L533.448 114.02L535.362 121.786L539.289 124.404L541.201 129.704L549.066 129.189L551.969 126.72L562.781 126.855L565.339 129.241L580.228 136.798L586.021 137.077L592.708 133.065L600.888 132.324L606.743 130.6L610.296 127.227L621.695 133.774L623.039 137.817L624.26 142.576L628.119 148.626L635.702 153.398L640.016 159.349L643.889 158.717L645.787 157.365L653.437 154.837L659.137 156.885L662.064 156.349L664.05 156.721L669.223 160.845L673.427 162.084L676.858 166.014L680.682 165.769L684.099 162.173L686.674 163.384L691.06 170.509L697.253 169.41L702.362 171.688L702.811 173.108L704.477 177.958L708.757 180.007L711.671 182.427L716.233 181.124L721.075 185.879L721.315 187.854L723.751 192.229L726 196.574L725.418 198.691L725.375 200.941L723.331 202.716L721.215 205.749L718.845 207.406L716.885 209.97L715.933 213.569L714.109 213.411L712.88 213.401L709.554 214.583L706.82 214.949L706.533 218.059L707.896 219.379L709.949 222.682L710.896 223.112L714.104 223.854L715.499 223.64L716.39 224.1L717.157 225.103L715.28 227.536L712.584 227.611L710.781 228.1L709.046 230.949L707.7 231.87L707.183 241.282L711.98 241.892L713.034 242.523L714.183 245.639L713.309 247.091L714.22 248.884L719.292 262.102L715.387 266.422L713.346 270.274L713.343 275.344L711.457 279.902L708.944 288.714L707.612 288.984L702.345 287.809L695.157 288.313L683.125 287.739L671.169 288.476L670.155 290.841L661.743 300.155L653.312 301.333L649.58 308.206L648.495 316.048L651.218 321.228L647.208 329.918L644.333 333.266L629.152 333.232L618.26 335.576L614.031 341.657L605.343 343.133L589.06 352.057H579.634L568.363 359.378L554.557 358.346L549.301 361.392L543.561 367.466L538.802 369.902L529.987 377.02L510.629 387.02L502.937 387.253L497.468 388.237L493.235 385.611L489.714 385.196L481.079 386.007L477.701 386.168L476.014 384.229L473.668 383.207L468.106 382.359L467.154 388.237L471.436 390.014L477.198 395.738L482.487 397.649L494.336 404.287L499.957 408.873L504.012 409.283L517.294 416.411L520.924 422.31L522.086 427.364L527.696 436.612L534.206 438.965L546.229 435.697L549.994 431.239L552.636 430.86L556.367 433.282L559.417 433.516L561.147 430.195L564.056 428.077L568.689 428.111L569.96 427.232L574.284 429.375L577.475 429.02L581.348 430.212L583.236 431.157L583.935 435.107L580.482 434.712L578.032 436.506L575.358 441.497L575.013 444.888L576.334 448.611L576.248 450.858L573.339 451.933L569.737 452.102L568.517 453.812L567.568 454.306L563.997 453.506L560.446 451.933L558.252 454.852L555.167 454.656L551.581 454.782L551.226 453.498L549.298 450.964L546.69 449.291L543.774 448.14L542.023 447.841L540.283 447.851L538.623 448.206L537.147 448.926L535.02 450.661L534.237 452.722L532.82 455.51L530.516 456.981L526.896 459.652L523.457 462.279L521.486 466.566L519.32 465.671L513.794 465.172L511.24 465.531L506.989 465.58L504.156 467.509L498.086 469.493L494.635 473.429L493.261 475.854L491.29 480.75L485.293 483.752L480.591 487.917L476.246 490L471.984 488.948L470.193 489.335L467.517 489.267L463.656 487.606L458.508 483.882L457.282 482.754L452.95 479.665L452.764 478.474L455.584 477.246L457.215 477.051L458.456 475.686L459.58 472.92L458.814 467.788L460.2 463.357L460.963 463.089L462.619 458.673L462.173 456.426L460.956 451.676L459.308 447.984L456.554 446.173L454.311 444.118L451.964 444.046L450.453 444.637L447.328 444.398L446.458 443.947L444.035 442.833L441.623 440.448L439.398 438.299L436.711 435.968L433.596 434.318L427.591 433.792L426.082 434.378L424.081 436.289H421.196L420.338 435.997L418.938 435.254L418.028 435.107L416.771 431.157L417.316 429.612L418.525 428.304L423.296 424.622L425.013 424.313L427.574 422.418L428.509 422.016L432.344 418.328L435.109 416.443L444.24 412.151L444.751 411.753L446.928 411.299L448.347 411.13L451.278 409.276L452.734 408.64L452.95 408.261L454.174 406.889L454.777 406.633L456.468 405.519L457.081 405.261L458.864 405.008L460.956 404.465L462.239 403.728L463.377 398.618L463.119 397.446L463.531 395.463L462.953 392.79L463.779 391.489L462.278 388.35L460.132 391.649L458.057 394.02L454.733 393.641L452.07 390.68L449.48 388.813L446.303 389.25L443.428 388.447L438.965 388.5L438.391 389.282L434.155 390.015L429.188 388.893L421.067 390.648L419.274 392.049L417.652 392.305L409.556 389.927L407.338 386.759L402.02 384.186L400.508 382.132L398.097 381.661L396.097 380.591L397.686 370.388L398.717 367.005L402.691 363.222L401.442 360.586L398.964 360.077L397.731 359.112L389.905 360.104L380.356 359.519L370.685 361.393L363.511 359.752L354.632 362.193L351.223 364.221L348.652 364.25L347.451 365.937L348.304 369.902L348.363 371.457L343.124 381.539L340.304 385.607L336.705 392.05L331.755 396.88L327.328 402.868L322.374 407.286L320.289 407.648L315.116 408.752L314.898 410.073L313.873 412.301L311.358 415.87L307.696 418.356L306.561 418.761L306.07 419.244L304.49 422.27L303.164 424.377L302.214 425.075L300.912 427.143L301.532 428.52L302.771 429.179L305.06 428.614L305.243 429.572L306.398 431.409L306.732 432.49L306.884 433.748L304.381 435.121L302.707 434.787L301.341 433.674L299.462 431.962L293.858 429.91L289.487 429.133L286.364 430.269L285.702 430.295L280.953 433.459L279.31 433.937L274.609 438.313L268.558 440.678L267.62 441.419L264.827 441.67L259.47 440.45L259.512 440.535L252.545 437.737L249.526 436.128L247.55 431.564L247.761 430.413L246.973 429.326L244.89 428.754L244.258 428.093L244.971 426.276V426.273L244.976 426.263L247.117 424.633L247.12 424.631L249.997 424.855L255.597 425.764L256.625 424.684L256.367 422.712L256.786 421.757L257.12 419.668L256.821 418.04L255.318 416.709L256.534 414.628L259.455 410.657L263.205 407.737L265.965 406.247L266.294 404.322L265.599 400.348L266.743 399.031L274.772 396.68L274.854 395.532L274.042 391.534L277.128 386.06L276.906 384.783L273.829 381.575L274.289 377.942L273.255 373L274.326 370.046L277.328 367.994L283.066 365.127L295.883 368.436L298.895 373.027L304.826 371.606L307.915 372.031L309.07 375.943L309.872 376.844L313.521 374.828L318.299 375.106L321.115 373.753L322.097 371.928L319.214 371.105L317.676 369.77L317.176 368.081L312.845 365.556L312.72 364.238L314.029 360.333L314.888 354.083L314.049 351.252L312.351 349.19L311.648 347.375L310.497 346.4L306.154 345.624L305.212 344.064L301.62 342.51L299.271 339.238L300.012 336.361V332.638L299.479 332.265L298.459 329.629L298.694 328.16L298.28 325.028L293.009 321.004L291.451 319.525L289.82 315.563L283.112 311.426L281.773 308.206L281.771 308.199L281.766 308.196L281.763 308.192L281.766 304.193L283.845 300.964L284.262 298.689L284.444 294.669L284.061 290.697L283.671 289.639L284.027 284.616L282.788 281.208L280.245 278.76L278.969 279.392L277.203 281.739L275.737 282.025Z" fill="#C5E1FF"/>
</svg>