<svg width="726" height="490" xmlns="http://www.w3.org/2000/svg" fill="none">

 <g>
  <title>Layer 1</title>
  <path stroke="#e54b4b" id="svg_1" fill="#d13e3e" d="m275.737,282.025l-3.959,-3.057l-5.943,-9.239l-2.798,-0.039l-3.706,-1.562l-2.188,0.356l-1.014,3.488l-1.881,0.556l-4.788,-2.696l-8.582,-6.691l-0.696,-2.891l-1.707,-2.284l-3.581,-0.453l-1.637,-0.644l-3.085,-4.295l-3.951,-2.595l-5.026,0.046l-3.299,-1.295l-5.708,3.729l-18.541,3.687l-6.803,3.918l-12.613,3.466l-6.6,4.514l-0.424,1.927l-3.311,5.314l-1.278,2.687l-1.908,0.894l-3.884,0.039l-2.56,0.783l-5.938,0.748l-2.652,1.092l-19.772,2.183l-1.724,1.219l-3.91,6.547l-1.687,1.647l-0.003,0.01l-8.147,1.461l-3.389,-5.184l-3.256,-1.299l-2.07,-1.693l-0.492,-2.504l-6.5946,-2.91l-4.0013,-0.029l-3.5591,1.449l-2.6946,1.381l-3.3142,-0.915l-27.7157,-3.594l-22.6795,1.237l-0.8172,0.256l-1.8183,-1.953l0.7614,-1.816l0.412,-1.189l-0.6939,-1.985l-1.7289,-1.822l-1.4452,-0.825l-0.7986,-0.716l-2.1155,0.884l-3.7515,0.039l-0.6871,-1.442l-0.5707,-1.931l-0.5284,-1.257l-3.1572,-4.073l-4.84555,0.049l-1.97367,-3.089l-2.0699,-3.888l0.00845,-0.974l0.59936,-1.851l-4.97554,-6.458l-0.47105,-2.487l0.68716,-2.244l4.10097,-4.36l1.07378,-0.347l1.88251,-3.644l0.07597,-2.146l1.40638,-2.342l-0.13675,-3.081l1.61578,-2.135l1.8774,-5.729l2.882,-1.331l0.7699,-4.915l5.9413,-6.285l2.0395,-6.349l-0.5453,-5.718l-1.7981,-3.241l-1.5583,-6.87l1.0045,-2.42l3.0559,-4.158l0.6956,-2.006l2.7267,-1.997l2.4819,-4.55l2.5358,-3.583l1.6867,-1.753l7.4439,-9.444l1.2122,-1.897l10.1792,-12.252l10.1687,-9.883l11.9922,-7.048l2.2238,-10.708l-4.2827,-8.276l0.4221,-2.335l0.3782,-7.2392l-1.4233,-3.6596l-1.6039,-4.4302l-2.0024,-3.8083l-3.5978,-5.023l-3.1403,-6.0653l-0.1368,-5.0691l-1.4148,-5.4553l-1.999,-8.8228l1.2038,-2.6243l3.9169,-1.0354l8.6663,4.121l1.6107,-0.2666l11.7255,-10.2852l0.9573,-4.2884l3.8139,-4.7309l10.03,-0.7996l3.306,0.6458l11.319,-1.8537l3.621,-1.9306l3.652,-0.6595l6.796,1.864l16.757,-0.4636l8.59,1.6521l2.799,-0.0888l5.025,3.1693l9.365,0.4015l10.392,3.2376l10.277,3.8681l4.058,-1.4454l6.296,1.1481l4.015,6.2942l8.048,1.799l8.04,1.8897l6.22,-1.1867l15.261,-2.5576l4.064,5.076l6.057,0.1828l6.1,2.0741l8.832,-0.545l2.456,-0.955l2.487,-0.0257l1.829,-1.2523l0.954,-2.0707l4.038,-0.7193l1.473,1.4232l0.845,2.3748l1.976,4.8454l-0.11,2.4329l1.494,1.4813l0.797,2.6841l1.423,1.7051l2.408,-1.6932l0.928,-0.299l6.666,-3.4888l3.731,-2.8396l0.883,0.1265l2.224,3.3743l3.655,0.6219l2.735,-2.2331l3.594,-0.8918l6.561,-0.4288l3.794,3.2632l3.118,2.1083l-0.125,4.0065l0.301,0.6903l1.232,1.6077l3.531,1.4454l0.898,1.3719l3.003,1.7376l0.446,-0.106l1.181,-4.3456l0.244,-9.6532l-0.932,-4.5651l-1.924,-5.3579l1.403,-2.1955l1.05,-3.2256l0.275,-1.0422l2.601,-7.7653l1.9,-1.7631l4.371,-6.0533l2.216,-1.2199l2.686,-5.5903l-0.238,-1.119l7.151,-1.3515l5.346,2.7371l3.039,-3.9211l6.866,-1.3429l7.054,1.3856l8.41,-0.1982l6.375,3.3128l3.167,0.5997l7.338,-4.0987l1.171,-2.5508l1.253,-5.59029l0.066,-4.10386l2.207,-2.6311l3.478,1.30701l1.928,-0.60312l7.935,4.26276l4.785,-0.6817l7.489,-2.74216l6.156,-4.23884l7.786,0.8013l0.982,0.72774l3.22,-0.89356l8.356,0.12985l3.667,-0.28191l3.214,3.85271l2.448,2.15273l1.54,2.99333l2.587,1.77861l2.095,4.613l-0.696,1.4915l0.466,4.9479l0.486,1.1481l5.736,7.2885l2.897,1.9289l3.672,3.7024l1.087,2.6277l0.058,2.7097l-2.306,2.028l-2.366,-0.0393l-5.848,8.0061l1.989,2.474l0.862,4.1687l-0.168,3.5948l3.244,3.8373l0.345,2.1989l2.541,5.0572l1.499,0.2409l2.877,1.049l3.939,0.0188l1.783,0.7757l2.115,3.704l2.948,0.1897l7.978,-3.2138l4.565,0.1265l1.602,1.8913l1.726,8.0779l0.064,0l2.531,1.2643l2.885,2.9916l2.058,4.1039l0.508,0.8525l1.449,5.2915l2.448,4.591l0.346,1.804l-0.068,3.005l-2.169,2.638l-0.557,1.574l1.914,7.766l3.927,2.618l1.912,5.3l7.865,-0.515l2.903,-2.469l10.812,0.135l2.558,2.386l14.889,7.557l5.793,0.279l6.687,-4.012l8.18,-0.741l5.855,-1.724l3.553,-3.373l11.399,6.547l1.344,4.043l1.221,4.759l3.859,6.05l7.583,4.772l4.314,5.951l3.873,-0.632l1.898,-1.352l7.65,-2.528l5.7,2.048l2.927,-0.536l1.986,0.372l5.173,4.124l4.204,1.239l3.431,3.93l3.824,-0.245l3.417,-3.596l2.575,1.211l4.386,7.125l6.193,-1.099l5.109,2.278l0.449,1.42l1.666,4.85l4.28,2.049l2.914,2.42l4.562,-1.303l4.842,4.755l0.24,1.975l2.436,4.375l2.249,4.345l-0.582,2.117l-0.043,2.25l-2.044,1.775l-2.116,3.033l-2.37,1.657l-1.96,2.564l-0.952,3.599l-1.824,-0.158l-1.229,-0.01l-3.326,1.182l-2.734,0.366l-0.287,3.11l1.363,1.32l2.053,3.303l0.947,0.43l3.208,0.742l1.395,-0.214l0.891,0.46l0.767,1.003l-1.877,2.433l-2.696,0.075l-1.803,0.489l-1.735,2.849l-1.346,0.921l-0.517,9.412l4.797,0.61l1.054,0.631l1.149,3.116l-0.874,1.452l0.911,1.793l5.072,13.218l-3.905,4.32l-2.041,3.852l-0.003,5.07l-1.886,4.558l-2.513,8.812l-1.332,0.27l-5.267,-1.175l-7.188,0.504l-12.032,-0.574l-11.956,0.737l-1.014,2.365l-8.412,9.314l-8.431,1.178l-3.732,6.873l-1.085,7.842l2.723,5.18l-4.01,8.69l-2.875,3.348l-15.181,-0.034l-10.892,2.344l-4.229,6.081l-8.688,1.476l-16.283,8.924l-9.426,0l-11.271,7.321l-13.806,-1.032l-5.256,3.046l-5.74,6.074l-4.759,2.436l-8.815,7.118l-19.358,10l-7.692,0.233l-5.469,0.984l-4.233,-2.626l-3.521,-0.415l-8.635,0.811l-3.378,0.161l-1.687,-1.939l-2.346,-1.022l-5.562,-0.848l-0.952,5.878l4.282,1.777l5.762,5.724l5.289,1.911l11.849,6.638l5.621,4.586l4.055,0.41l13.282,7.128l3.63,5.899l1.162,5.054l5.61,9.248l6.51,2.353l12.023,-3.268l3.765,-4.458l2.642,-0.379l3.731,2.422l3.05,0.234l1.73,-3.321l2.909,-2.118l4.633,0.034l1.271,-0.879l4.324,2.143l3.191,-0.355l3.873,1.192l1.888,0.945l0.699,3.95l-3.453,-0.395l-2.45,1.794l-2.674,4.991l-0.345,3.391l1.321,3.723l-0.086,2.247l-2.909,1.075l-3.602,0.169l-1.22,1.71l-0.949,0.494l-3.571,-0.8l-3.551,-1.573l-2.194,2.919l-3.085,-0.196l-3.586,0.126l-0.355,-1.284l-1.928,-2.534l-2.608,-1.673l-2.916,-1.151l-1.751,-0.299l-1.74,0.01l-1.66,0.355l-1.476,0.72l-2.127,1.735l-0.783,2.061l-1.417,2.788l-2.304,1.471l-3.62,2.671l-3.439,2.627l-1.971,4.287l-2.166,-0.895l-5.526,-0.499l-2.554,0.359l-4.251,0.049l-2.833,1.929l-6.07,1.984l-3.451,3.936l-1.374,2.425l-1.971,4.896l-5.997,3.002l-4.702,4.165l-4.345,2.083l-4.262,-1.052l-1.791,0.387l-2.676,-0.068l-3.861,-1.661l-5.148,-3.724l-1.226,-1.128l-4.332,-3.089l-0.186,-1.191l2.82,-1.228l1.631,-0.195l1.241,-1.365l1.124,-2.766l-0.766,-5.132l1.386,-4.431l0.763,-0.268l1.656,-4.416l-0.446,-2.247l-1.217,-4.75l-1.648,-3.692l-2.754,-1.811l-2.243,-2.055l-2.347,-0.072l-1.511,0.591l-3.125,-0.239l-0.87,-0.451l-2.423,-1.114l-2.412,-2.385l-2.225,-2.149l-2.687,-2.331l-3.115,-1.65l-6.005,-0.526l-1.509,0.586l-2.001,1.911l-2.885,0l-0.858,-0.292l-1.4,-0.743l-0.91,-0.147l-1.257,-3.95l0.545,-1.545l1.209,-1.308l4.771,-3.682l1.717,-0.309l2.561,-1.895l0.935,-0.402l3.835,-3.688l2.765,-1.885l9.131,-4.292l0.511,-0.398l2.177,-0.454l1.419,-0.169l2.931,-1.854l1.456,-0.636l0.216,-0.379l1.224,-1.372l0.603,-0.256l1.691,-1.114l0.613,-0.258l1.783,-0.253l2.092,-0.543l1.283,-0.737l1.138,-5.11l-0.258,-1.172l0.412,-1.983l-0.578,-2.673l0.826,-1.301l-1.501,-3.139l-2.146,3.299l-2.075,2.371l-3.324,-0.379l-2.663,-2.961l-2.59,-1.867l-3.177,0.437l-2.875,-0.803l-4.463,0.053l-0.574,0.782l-4.236,0.733l-4.967,-1.122l-8.121,1.755l-1.793,1.401l-1.622,0.256l-8.096,-2.378l-2.218,-3.168l-5.318,-2.573l-1.512,-2.054l-2.411,-0.471l-2,-1.07l1.589,-10.203l1.031,-3.383l3.974,-3.783l-1.249,-2.636l-2.478,-0.509l-1.233,-0.965l-7.826,0.992l-9.549,-0.585l-9.671,1.874l-7.174,-1.641l-8.879,2.441l-3.409,2.028l-2.571,0.029l-1.201,1.687l0.853,3.965l0.059,1.555l-5.239,10.082l-2.82,4.068l-3.599,6.443l-4.95,4.83l-4.427,5.988l-4.954,4.418l-2.085,0.362l-5.173,1.104l-0.218,1.321l-1.025,2.228l-2.515,3.569l-3.662,2.486l-1.135,0.405l-0.491,0.483l-1.58,3.026l-1.326,2.107l-0.95,0.698l-1.302,2.068l0.62,1.377l1.239,0.659l2.289,-0.565l0.183,0.958l1.155,1.837l0.334,1.081l0.152,1.258l-2.503,1.373l-1.674,-0.334l-1.366,-1.113l-1.879,-1.712l-5.604,-2.052l-4.371,-0.777l-3.123,1.136l-0.662,0.026l-4.749,3.164l-1.643,0.478l-4.701,4.376l-6.051,2.365l-0.938,0.741l-2.793,0.251l-5.357,-1.22l0.042,0.085l-6.967,-2.798l-3.019,-1.609l-1.976,-4.564l0.211,-1.151l-0.788,-1.087l-2.083,-0.572l-0.632,-0.661l0.713,-1.817l0,-0.003l0.005,-0.01l2.141,-1.63l0.003,-0.002l2.877,0.224l5.6,0.909l1.028,-1.08l-0.258,-1.972l0.419,-0.955l0.334,-2.089l-0.299,-1.628l-1.503,-1.331l1.216,-2.081l2.921,-3.971l3.75,-2.92l2.76,-1.49l0.329,-1.925l-0.695,-3.974l1.144,-1.317l8.029,-2.351l0.082,-1.148l-0.812,-3.998l3.086,-5.474l-0.222,-1.277l-3.077,-3.208l0.46,-3.633l-1.034,-4.942l1.071,-2.954l3.002,-2.052l5.738,-2.867l12.817,3.309l3.012,4.591l5.931,-1.421l3.089,0.425l1.155,3.912l0.802,0.901l3.649,-2.016l4.778,0.278l2.816,-1.353l0.982,-1.825l-2.883,-0.823l-1.538,-1.335l-0.5,-1.689l-4.331,-2.525l-0.125,-1.318l1.309,-3.905l0.859,-6.25l-0.839,-2.831l-1.698,-2.062l-0.703,-1.815l-1.151,-0.975l-4.343,-0.776l-0.942,-1.56l-3.592,-1.554l-2.349,-3.272l0.741,-2.877l0,-3.723l-0.533,-0.373l-1.02,-2.636l0.235,-1.469l-0.414,-3.132l-5.271,-4.024l-1.558,-1.479l-1.631,-3.962l-6.708,-4.137l-1.339,-3.22l-0.002,-0.007l-0.005,-0.003l-0.003,-0.004l0.003,-3.999l2.079,-3.229l0.417,-2.275l0.182,-4.02l-0.383,-3.972l-0.39,-1.058l0.356,-5.023l-1.239,-3.408l-2.543,-2.448l-1.276,0.632l-1.766,2.347l-1.466,0.286z"/>
 </g>
</svg>